<svg xmlns="http://www.w3.org/2000/svg" version="1.1" xmlns:xlink="http://www.w3.org/1999/xlink" xmlns:svgjs="http://svgjs.dev/svgjs" width="1500" height="1070" viewBox="0 0 1500 1070"><g transform="matrix(1,0,0,1,0.518210605679883,0.4339983332728252)"><svg viewBox="0 0 346 247" data-background-color="#ffffff" preserveAspectRatio="xMidYMid meet" height="1070" width="1500" xmlns="http://www.w3.org/2000/svg" xmlns:xlink="http://www.w3.org/1999/xlink"><g id="tight-bounds" transform="matrix(1,0,0,1,-0.11953391304348315,-0.09997365579206985)"><svg viewBox="0 0 346.23906782608697 247.2" height="247.2" width="346.23906782608697"><g><svg viewBox="0 0 346.23906782608697 247.2" height="247.2" width="346.23906782608697"><g><svg viewBox="0 0 346.23906782608697 247.2" height="247.2" width="346.23906782608697"><g id="textblocktransform"><svg viewBox="0 0 346.23906782608697 247.2" height="247.2" width="346.23906782608697" id="textblock"><g><svg viewBox="0 0 346.23906782608697 247.2" height="247.2" width="346.23906782608697"><path d="M345.428 53.02C343.801 27.36 339.162 20.227 339.162 20.227 324.919-6.202 307.144-0.506 291.176 3.292 262.983 3.446 234.905 9.091 206.777 12.119 147.739 12.581 88.196 4.986 29.451 23.717 23.933 29.464-5.725 24.846 0.982 56.304 2.739 69.39 9.153 83.913 8.957 95.922 9.836 98.026 11.057 93.202 11.578 96.23 13.401 104.39 16.38 100.541 18.822 105.365 15.42 118.246 17.861 128.971 20.189 140.21 16.087 143.135 10.829 141.749 8.469 151.449 8.225 158.479 6.907 157.145 5.458 156.837 4.4 156.632 2.267 157.402 2.626 159.608 3.846 167.152-1.395 171.514 1.893 178.904-0.37 186.91 3.456 193.838 2.935 202.511 2.87 204.255 3.228 205.744 3.798 206.154 6.321 208.361 2.642 212.672 3.032 217.342 28.914 249.262 56.992 227.195 83.508 241.872 90.394 231.608 85.217 245.516 87.968 243.36 90.117 240.846 91.679 251.263 94.105 245.362 94.479 243.668 93.909 239.665 95.244 240.435 95.944 240.846 96.563 240.743 96.66 238.382 96.807 234.841 95.521 237.048 95.179 235.201 98.874 225.861 97.963 248.081 101.43 247.158 101.267 244.438 100.258 240.538 102.325 241.051 104.376 237.151 104.441 233.918 106.264 242.693 106.329 244.592 106.655 245.926 107.176 246.85 112.873 237.305 118.537 250.237 124.511 245.926 128.173 241.205 131.689 248.492 135.401 246.696 136.703 245.259 138.021 242.693 139.275 247.004 154.624 247.928 170.983 244.079 185.535 247.158 224.422 241.41 265.978 249.518 306.981 241.923 316.65 238.998 326.693 234.841 336.118 231.506 336.118 231.506 343.752 222.371 343.752 181.316S345.38 145.393 345.624 112.703C345.868 80.013 347.007 78.679 345.38 53.02Z" opacity="1" fill="#2c3ad1" data-fill-palette-color="tertiary"></path><g transform="matrix(1,0,0,1,55.76832000000002,26.230666666666668)"><svg width="234.70242782608693" viewBox="4 -28.75 34.65 28.75" height="194.73866666666666" data-palette-color="#ffffff"><path d="M4-3.4L4-25.3 9.85-28.75 20.2-28.75 20.2-23.1 10.5-23.1 10.5-5.85 20-5.85 20 0 9.85 0 4-3.4ZM38.65-9.3L32.15-9.3 32.15-5.85 22.65-5.85 22.65 0 32.8 0 38.65-3.4 38.65-9.3ZM32.15-19.6L38.65-19.6 38.65-25.3 32.8-28.75 22.45-28.75 22.45-23.1 32.15-23.1 32.15-19.6Z" opacity="1" transform="matrix(1,0,0,1,0,0)" fill="#ffffff" class="wordmark-text-0" data-fill-palette-color="quaternary" id="text-0"></path></svg></g></svg></g></svg></g></svg></g><g></g></svg></g><defs></defs></svg><rect width="346.23906782608697" height="247.2" fill="none" stroke="none" visibility="hidden"></rect></g></svg></g></svg>